#N canvas 480 39 1042 1045 12;
#X declare -path util;
#X declare -path modules;
#X obj 508 309 sequencer;
#X obj 508 459 sequencer;
#X obj 507 611 sequencer;
#X obj 328 309 sample;
#X obj 327 459 sample;
#X obj 327 609 sample;
#X obj 508 78 panel;
#X listbox 413 611 12 0 0 0 - - - 0;
#X obj 508 159 sequencer;
#X obj 76 24 keyup;
#X obj 77 91 t b f;
#X msg 49 146 0;
#X listbox 414 312 12 0 0 0 - - - 0;
#X listbox 413 462 12 0 0 0 - - - 0;
#X floatatom 109 165 5 0 0 0 - - - 0;
#X obj 49 118 delay 10;
#X obj 327 760 sample;
#X listbox 413 763 12 0 0 0 - - - 0;
#X obj 1382 26 keyup;
#X obj 1382 85 t b f;
#X msg 1354 140 0;
#X floatatom 1414 159 5 0 0 0 - - - 0;
#X obj 1354 112 delay 10;
#X obj 49 198 select 117 105 111 106 46;
#X obj 308 149 bng 19 250 50 0 empty empty empty 0 -10 0 12 #fcfcfc #000000 #000000;
#X obj 307 749 bng 19 250 50 0 empty empty empty 0 -10 0 12 #fcfcfc #000000 #000000;
#X obj 307 598 bng 19 250 50 0 empty empty empty 0 -10 0 12 #fcfcfc #000000 #000000;
#X obj 308 448 bng 19 250 50 0 empty empty empty 0 -10 0 12 #fcfcfc #000000 #000000;
#X obj 308 299 bng 19 250 50 0 empty empty empty 0 -10 0 12 #fcfcfc #000000 #000000;
#X obj 1414 183 select 107 108 109 44;
#X obj 1235 140 bng 19 250 50 0 empty empty empty 0 -10 0 12 #fcfcfc #000000 #000000;
#X obj 1259 290 bng 19 250 50 0 empty empty empty 0 -10 0 12 #fcfcfc #000000 #000000;
#X obj 1259 441 bng 19 250 50 0 empty empty empty 0 -10 0 12 #fcfcfc #000000 #000000;
#X obj 1259 590 bng 19 250 50 0 empty empty empty 0 -10 0 12 #fcfcfc #000000 #000000;
#X obj 76 57 spigot;
#X obj 1382 56 spigot;
#X obj 135 24 r keys;
#X obj 1443 25 r keys;
#X text 762 829 more samplers/sequencers can be added!;
#X text 164 796 list of samples included \; snare \, kick \, clap \, crash \, crashr \, ride \, and hat (you can also add your own .wav files), f 20;
#X text 1119 20 default keybinds \; u \, i \, o \, j -> samps \; k \, l \, m \, \\\, -> seqs \; extras can be bound to w/e, f 27;
#X obj 1259 160 bng 19 250 50 0 empty empty empty 0 -10 0 12 #ff0400 #000000 #000000;
#X obj 341 21 declare -path util;
#X obj 341 45 declare -path modules;
#X obj 328 158 sample;
#X listbox 414 161 12 0 0 0 - - - 0;
#X connect 0 0 3 2;
#X connect 1 0 4 2;
#X connect 2 0 5 2;
#X connect 6 0 8 0;
#X connect 6 0 0 0;
#X connect 6 0 2 0;
#X connect 6 0 1 0;
#X connect 6 1 41 0;
#X connect 7 0 5 0;
#X connect 8 0 44 2;
#X connect 9 0 34 0;
#X connect 10 0 15 0;
#X connect 10 1 14 0;
#X connect 11 0 14 0;
#X connect 12 0 3 0;
#X connect 13 0 4 0;
#X connect 14 0 23 0;
#X connect 15 0 11 0;
#X connect 17 0 16 0;
#X connect 18 0 35 0;
#X connect 19 0 22 0;
#X connect 19 1 21 0;
#X connect 20 0 21 0;
#X connect 21 0 29 0;
#X connect 22 0 20 0;
#X connect 23 0 24 0;
#X connect 23 1 28 0;
#X connect 23 2 27 0;
#X connect 23 3 26 0;
#X connect 23 4 25 0;
#X connect 24 0 44 1;
#X connect 25 0 16 1;
#X connect 26 0 5 1;
#X connect 27 0 4 1;
#X connect 28 0 3 1;
#X connect 29 0 30 0;
#X connect 29 1 31 0;
#X connect 29 2 32 0;
#X connect 29 3 33 0;
#X connect 30 0 8 0;
#X connect 31 0 0 0;
#X connect 32 0 1 0;
#X connect 33 0 2 0;
#X connect 34 0 10 0;
#X connect 35 0 19 0;
#X connect 36 0 34 1;
#X connect 37 0 35 1;
#X connect 41 0 8 1;
#X connect 41 0 0 1;
#X connect 41 0 1 1;
#X connect 41 0 2 1;
#X connect 45 0 44 0;
