#N canvas 573 482 1380 838 12;
#X obj 101 103 cnv 19 748 144 empty empty sequencer 16 12 0 14 #c7c6ff #7c7c7c 0;
#X obj 162 136 tgl 32 0 empty empty empty 0 -10 0 12 #feffc6 #000000 #000000 0 1;
#X obj 205 136 tgl 32 0 empty empty empty 0 -10 0 12 #fcfcfc #000000 #000000 0 1;
#X obj 248 136 tgl 32 0 empty empty empty 0 -10 0 12 #fcfcfc #000000 #000000 0 1;
#X obj 291 136 tgl 32 0 empty empty empty 0 -10 0 12 #fcfcfc #000000 #000000 0 1;
#X obj 333 136 tgl 32 0 empty empty empty 0 -10 0 12 #feffc6 #000000 #000000 0 1;
#X obj 376 136 tgl 32 0 empty empty empty 0 -10 0 12 #fcfcfc #000000 #000000 0 1;
#X obj 419 136 tgl 32 0 empty empty empty 0 -10 0 12 #fcfcfc #000000 #000000 0 1;
#X obj 462 136 tgl 32 0 empty empty empty 0 -10 0 12 #fcfcfc #000000 #000000 0 1;
#X obj 504 136 tgl 32 0 empty empty empty 0 -10 0 12 #feffc6 #000000 #000000 0 1;
#X obj 547 136 tgl 32 0 empty empty empty 0 -10 0 12 #fcfcfc #000000 #000000 0 1;
#X obj 590 136 tgl 32 0 empty empty empty 0 -10 0 12 #fcfcfc #000000 #000000 0 1;
#X obj 633 136 tgl 32 0 empty empty empty 0 -10 0 12 #fcfcfc #000000 #000000 0 1;
#X obj 675 136 tgl 32 0 empty empty empty 0 -10 0 12 #feffc6 #000000 #000000 0 1;
#X obj 718 136 tgl 32 0 empty empty empty 0 -10 0 12 #fcfcfc #000000 #000000 0 1;
#X obj 761 136 tgl 32 0 empty empty empty 0 -10 0 12 #fcfcfc #000000 #000000 0 1;
#X obj 804 136 tgl 32 0 empty empty empty 0 -10 0 12 #fcfcfc #000000 #000000 0 1;
#X obj 119 136 bng 32 250 50 0 empty empty empty 0 -10 0 12 #ff8300 #000000 #000000;
#X obj 200 261 pack f f f f f f f f f f f f f f f f f;
#X obj 200 284 list split 1;
#X text 297 284 we can discard the bang;
#X obj 910 118 loadbang;
#X obj 910 155 \$0;
#X obj 885 118 bng 19 250 50 0 empty empty empty 0 -10 0 12 #fcfcfc #000000 #000000;
#X floatatom 910 189 5 0 0 0 - - - 0;
#X obj 633 347 r beats;
#X obj 240 315 array set \$0-seq;
#X obj 910 218 array define \$0-seq;
#X obj 670 410 array size \$0-seq;
#X obj 508 347 r bpm;
#X floatatom 508 383 5 0 0 0 - - - 0;
#X obj 910 607 outlet;
#X obj 610 515 counter;
#X obj 379 544 metro;
#X obj 379 571 bng 19 250 50 0 empty empty empty 0 -10 0 12 #fcfcfc #000000 #000000;
#X obj 465 449 /;
#X floatatom 465 474 7 0 0 1 length\ of\ beat - - 0;
#X obj 379 518 tgl 19 0 empty empty empty 0 -10 0 12 #fcfcfc #000000 #000000 0 1;
#X obj 910 455 select 1 0;
#X obj 910 431 tabread \$0-seq;
#X obj 910 478 bng 19 250 50 0 empty empty empty 0 -10 0 12 #fcfcfc #000000 #000000;
#X obj 494 268 loadbang;
#X msg 436 400 15000;
#X msg 552 347 120;
#X msg 597 347 16;
#X obj 9 95 inlet;
#X obj 66 590 delay;
#X obj 66 659 bng 19 250 50 0 empty empty empty 0 -10 0 12 #fcfcfc #000000 #000000;
#X obj 66 560 t b f;
#X floatatom 436 423 6 0 0 0 - - - 0;
#X msg 21 560 stop;
#X obj 119 254 + 1;
#X obj 119 283 mod 2;
#X obj 66 625 spigot;
#X obj 105 534 tgl 19 0 empty empty empty 0 -10 0 12 #fcfcfc #000000 #000000 0 1;
#X obj 143 562 bng 19 250 50 0 empty empty empty 0 -10 0 12 #fcfcfc #000000 #000000;
#X obj 143 533 select 1;
#X obj 143 587 *;
#X obj 405 704 * -1;
#X floatatom 143 615 8 0 0 0 - - - 0;
#X obj 610 564 s \$0-count;
#X obj 405 606 r \$0-count;
#X floatatom 405 729 6 0 0 0 - - - 0;
#X obj 119 314 s \$0-rpt;
#X obj 105 491 r \$0-rpt;
#X msg 861 169 0.5;
#X obj 910 579 pack a f f;
#X obj 682 256 s \$0-vol;
#X obj 754 255 s \$0-pan;
#X obj 943 526 r \$0-vol;
#X obj 977 549 r \$0-pan;
#X text 963 150 init arr unique to instance, f 12;
#X obj 40 176 s \$0-in;
#X obj 20 263 loadbang;
#X msg 20 289 1;
#X obj 688 452 r \$0-in;
#X text 1029 437 1 = play a note \; 0 = nothing;
#X text 1056 531 vol and pan values also need to go to sampler to be read, f 20;
#X obj 232 352 r \$0-in;
#X obj 379 473 bng 19 250 50 0 empty empty empty 0 -10 0 12 #fcfcfc #000000 #000000;
#X text 572 296 sequence parsing logic;
#X text 43 687 if repeat is ON \; spigot is OFF so the bang won't turn off the metro, f 21;
#X obj 910 407 r \$0-count;
#X floatatom 610 541 5 0 0 0 - - - 0;
#X floatatom 405 637 5 0 0 0 - - - 0;
#X msg 720 588 0;
#X floatatom 405 681 6 0 0 0 - - - 0;
#X obj 580 74 r \$0-count;
#X obj 47 130 inlet;
#X obj 405 660 -;
#X obj 688 479 t b b;
#X obj 492 655 -0.5;
#X msg 317 499 0;
#X obj 494 294 t b b b;
#X text 467 694 calculate remaining number of beats in sequence, f 17;
#X obj 41 207 s \$0-st;
#X obj 21 406 r \$0-st;
#X obj 753 495 r \$0-st;
#X obj 458 570 select 15;
#X obj 518 543 - 1;
#X floatatom 633 383 5 0 0 0 - - - 0;
#X obj 270 630 spigot;
#X obj 270 679 bng 19 250 50 0 empty empty empty 0 -10 0 12 #fcfcfc #000000 #000000;
#X obj 101 103 cnv 19 748 20 empty empty sequencer 16 12 0 14 #9f9f9f #ffffff 0;
#X obj 101 180 cnv 19 748 67 empty empty empty 16 12 0 14 #9ea1d4 #7c7c7c 0;
#X obj 716 200 hsl 120 15 0 1 0 0 empty empty volume -2 -6 0 12 #fcfcfc #000000 #000000 0 1;
#X obj 716 228 hsl 120 15 0 1 0 0 empty empty pan -2 -6 0 12 #fcfcfc #000000 #000000 0 1;
#X obj 119 219 tgl 24 0 empty empty loop 30 14 0 12 #c7c6ff #000000 #000000 0 1;
#X obj 119 194 bng 19 250 50 0 empty empty empty 24 10 0 12 #ff0400 #000000 #000000;
#X obj 206 202 hradio 30 1 0 16 empty empty empty 0 -10 0 12 #fcfcfc #000000 #000000 0;
#X connect 1 0 18 1;
#X connect 1 0 18 0;
#X connect 2 0 18 2;
#X connect 2 0 18 0;
#X connect 3 0 18 3;
#X connect 3 0 18 0;
#X connect 4 0 18 4;
#X connect 4 0 18 0;
#X connect 5 0 18 5;
#X connect 5 0 18 0;
#X connect 6 0 18 6;
#X connect 6 0 18 0;
#X connect 7 0 18 7;
#X connect 7 0 18 0;
#X connect 8 0 18 8;
#X connect 8 0 18 0;
#X connect 9 0 18 9;
#X connect 9 0 18 0;
#X connect 10 0 18 10;
#X connect 10 0 18 0;
#X connect 11 0 18 11;
#X connect 11 0 18 0;
#X connect 12 0 18 12;
#X connect 12 0 18 0;
#X connect 13 0 18 13;
#X connect 13 0 18 0;
#X connect 14 0 18 14;
#X connect 14 0 18 0;
#X connect 15 0 18 15;
#X connect 15 0 18 0;
#X connect 16 0 18 16;
#X connect 16 0 18 0;
#X connect 17 0 18 0;
#X connect 17 0 72 0;
#X connect 18 0 19 0;
#X connect 19 1 26 0;
#X connect 21 0 22 0;
#X connect 21 0 65 0;
#X connect 22 0 24 0;
#X connect 23 0 22 0;
#X connect 24 0 27 0;
#X connect 25 0 100 0;
#X connect 29 0 30 0;
#X connect 30 0 35 1;
#X connect 30 0 42 0;
#X connect 32 0 83 0;
#X connect 33 0 34 0;
#X connect 34 0 32 0;
#X connect 35 0 36 0;
#X connect 36 0 33 1;
#X connect 36 0 57 0;
#X connect 37 0 33 0;
#X connect 38 0 40 0;
#X connect 39 0 38 0;
#X connect 40 0 66 0;
#X connect 41 0 93 0;
#X connect 42 0 49 0;
#X connect 43 0 30 0;
#X connect 44 0 100 0;
#X connect 45 0 17 0;
#X connect 46 0 53 0;
#X connect 47 0 37 0;
#X connect 48 0 46 0;
#X connect 48 1 46 1;
#X connect 49 0 35 0;
#X connect 50 0 46 0;
#X connect 51 0 52 0;
#X connect 52 0 63 0;
#X connect 53 0 47 0;
#X connect 54 0 53 1;
#X connect 55 0 57 0;
#X connect 56 0 55 0;
#X connect 57 0 59 0;
#X connect 58 0 62 0;
#X connect 59 0 48 0;
#X connect 61 0 84 0;
#X connect 62 0 57 1;
#X connect 64 0 54 0;
#X connect 64 0 56 0;
#X connect 64 0 101 1;
#X connect 65 0 105 0;
#X connect 65 0 106 0;
#X connect 66 0 31 0;
#X connect 69 0 66 1;
#X connect 70 0 66 2;
#X connect 73 0 74 0;
#X connect 73 0 108 0;
#X connect 74 0 63 0;
#X connect 75 0 90 0;
#X connect 78 0 79 0;
#X connect 79 0 37 0;
#X connect 82 0 39 0;
#X connect 83 0 60 0;
#X connect 83 0 98 0;
#X connect 84 0 89 0;
#X connect 85 0 84 0;
#X connect 86 0 58 0;
#X connect 87 0 109 0;
#X connect 88 0 108 0;
#X connect 89 0 86 0;
#X connect 90 0 85 0;
#X connect 90 1 32 2;
#X connect 91 0 89 1;
#X connect 92 0 37 0;
#X connect 93 0 92 0;
#X connect 93 1 42 0;
#X connect 93 2 43 0;
#X connect 93 2 44 0;
#X connect 96 0 50 0;
#X connect 96 0 92 0;
#X connect 97 0 32 1;
#X connect 98 0 101 0;
#X connect 99 0 98 1;
#X connect 100 0 28 0;
#X connect 100 0 90 0;
#X connect 100 0 32 1;
#X connect 100 0 91 0;
#X connect 100 0 99 0;
#X connect 101 0 102 0;
#X connect 102 0 37 0;
#X connect 105 0 67 0;
#X connect 106 0 68 0;
#X connect 107 0 51 0;
#X connect 108 0 107 0;
#X coords 0 -1 1 1 750 150 1 100 100;
