#N canvas 266 305 450 300 12;
#X obj 139 34 inlet;
#X floatatom 139 65 5 0 0 0 - - - 0;
#X obj 139 99 / 12;
#X obj 139 131 t b f;
#X msg 128 165 2;
#X obj 138 199 pow;
#X obj 138 237 outlet;
#X text 65 65 semitones;
#X text 181 159 calculate transp. factor... 2^(N/12), f 11;
#X connect 0 0 1 0;
#X connect 1 0 2 0;
#X connect 2 0 3 0;
#X connect 3 0 4 0;
#X connect 3 1 5 1;
#X connect 4 0 5 0;
#X connect 5 0 6 0;
