#N canvas 174 39 1536 1045 12;
#X obj 101 103 cnv 19 178 144 empty empty empty 16 14 0 14 #ffc7c6 #7c7c7c 0;
#X obj 118 140 vsl 15 60 -12 12 0 1 empty empty pitch 0 -9 0 12 #fcfcfc #000000 #000000 2950 1;
#X obj 159 140 vsl 15 60 -0.5 48 0 0 empty empty depth 0 -9 0 12 #fcfcfc #000000 #000000 0 1;
#X obj -84 203 expr int(round($f1) + 0);
#X obj 420 363 soundfiler;
#X floatatom 420 394 7 0 0 0 N - - 0;
#X floatatom 487 394 6 0 0 1 fs - - 0;
#X obj 420 423 /;
#X floatatom 420 455 8 0 0 0 - - - 0;
#X obj 391 492 pow -1;
#X floatatom 391 528 5 0 0 0 f0 - - 0;
#X floatatom 449 528 8 0 0 1 dur - - 0;
#X obj 449 492 * 1000;
#X obj 358 566 *;
#X obj 267 817 phasor~;
#X obj 235 818 - 1;
#X msg 313 783 0;
#X text 346 781 reset;
#X obj 100 371 t f b;
#X floatatom 267 784 5 0 0 0 - - - 0;
#X obj 493 725 delay;
#X text 539 714 turn off note after one period, f 10;
#X msg 358 757 0;
#X obj 894 916 dac~;
#X obj 436 210 inlet;
#X obj 346 36 \$0;
#X floatatom 346 71 5 0 0 0 - - - 0;
#X obj 215 784 r \$0-N;
#X obj 370 423 s \$0-N;
#X obj 425 725 s \$0-dur;
#X obj 346 104 array define \$0-table;
#X obj 905 566 tabread4~ \$0-table;
#X obj 436 288 pack s f;
#X msg 420 333 read -resize \$1 \$2-table;
#X obj 118 264 myTranspose;
#X floatatom 118 296 5 0 0 0 - - - 0;
#X obj 100 338 * 1;
#X msg 240 303 1;
#X obj 396 562 pack f f;
#X floatatom 459 623 5 0 0 0 - - - 0;
#X floatatom 397 624 5 0 0 0 - - - 0;
#X obj 396 593 unpack f f;
#X obj 426 661 /;
#X floatatom 434 692 5 0 0 0 - - - 0;
#X obj 133 16 loadbang;
#X obj 332 303 bng 19 250 50 0 empty empty empty 0 -10 0 12 #fcfcfc #000000 #000000;
#X obj 745 236 inlet;
#X obj 745 265 unpack a f f;
#X obj 267 874 s~ \$0-sig;
#X obj 905 536 r~ \$0-sig;
#X floatatom 785 301 5 0 0 0 vol - - 0;
#X floatatom 935 302 5 0 0 0 pan - - 0;
#X obj 267 847 *~ 0.5;
#X floatatom 908 401 9 0 0 0 L - - 0;
#X floatatom 1002 401 10 0 0 1 R - - 0;
#X obj 812 370 expr cos($f1 * 1.5708);
#X obj 1002 370 expr sin($f1 * 1.5708);
#X obj 878 833 *~;
#X obj 933 832 *~;
#X obj 988 206 loadbang;
#X msg 988 234 0.5;
#X obj 878 879 *~;
#X obj 933 878 *~;
#X obj 905 690 bitcrusher~;
#X obj 979 631 + 2;
#X floatatom 979 658 5 0 0 0 - - - 0;
#X msg 44 113 0;
#X msg 176 69 48;
#X obj 285 245 s \$0-depth;
#X obj 979 603 r \$0-depth;
#X obj 630 222 inlet;
#X obj 199 141 vsl 15 60 20 20000 0 0 empty empty lop 0 -9 0 12 #fcfcfc #000000 #000000 0 1;
#X obj 101 103 cnv 19 178 20 empty empty sampler 16 14 0 14 #dfdfdf #7c7c7c 0;
#X obj 239 268 s \$0-in;
#X text 377 184 L: symbol w/ filename;
#X text 631 174 M: bang to play 1 note, f 7;
#X text 722 205 R: list of (bang \, vol \, pan);
#X text 14 279 transposition factor, f 13;
#X text 134 689 A3 method for reading in a sample and playing it back lol, f 17;
#X text 1178 351 these exprs (sort of) evenly distribute amp across L and R channels based on the pan, f 20;
#X text 989 287 0 = L only \; 1 = R only \; 0.5 = balanced in both;
#X obj 785 328 s \$0-vol;
#X obj 803 784 r \$0-vol;
#X obj 999 811 r \$0-pan;
#X obj 999 841 unpack f f;
#X obj 908 427 pack f f;
#X obj 908 456 s \$0-pan;
#X text 1065 614 slight offset since 0 is basically inaudible, f 16;
#X obj 905 737 lop~;
#X obj 930 714 r \$0-lop;
#X obj 905 785 hip~;
#X obj 930 761 r \$0-hip;
#X obj 239 141 vsl 15 60 20 20000 0 0 empty empty hip 0 -9 0 12 #fcfcfc #000000 #000000 0 1;
#X msg 210 68 20000;
#X msg 260 69 20;
#X obj 286 223 s \$0-lop;
#X obj 286 201 s \$0-hip;
#X obj 101 209 cnv 19 178 40 empty empty empty 16 14 0 14 #d3a0a6 #7c7c7c 0;
#X obj 219 220 bng 19 250 50 0 empty empty play 24 10 0 12 #ff8300 #000000 #000000;
#X floatatom 110 224 5 0 0 1 semitones - - 10;
#X obj 401 262 makefilename ../samples/%s;
#X connect 1 0 3 0;
#X connect 2 0 68 0;
#X connect 3 0 99 0;
#X connect 4 0 5 0;
#X connect 4 1 6 0;
#X connect 5 0 7 0;
#X connect 5 0 28 0;
#X connect 6 0 7 1;
#X connect 7 0 8 0;
#X connect 8 0 9 0;
#X connect 8 0 12 0;
#X connect 9 0 10 0;
#X connect 10 0 13 1;
#X connect 11 0 38 1;
#X connect 12 0 11 0;
#X connect 13 0 19 0;
#X connect 14 0 52 0;
#X connect 15 0 52 1;
#X connect 16 0 14 1;
#X connect 18 0 13 0;
#X connect 18 0 38 0;
#X connect 18 1 16 0;
#X connect 19 0 14 0;
#X connect 20 0 22 0;
#X connect 22 0 19 0;
#X connect 24 0 45 0;
#X connect 24 0 100 0;
#X connect 25 0 26 0;
#X connect 26 0 30 0;
#X connect 26 0 32 1;
#X connect 27 0 15 0;
#X connect 31 0 63 0;
#X connect 32 0 33 0;
#X connect 33 0 4 0;
#X connect 34 0 35 0;
#X connect 35 0 36 1;
#X connect 36 0 18 0;
#X connect 37 0 36 0;
#X connect 38 0 41 0;
#X connect 39 0 42 0;
#X connect 40 0 42 1;
#X connect 41 0 40 0;
#X connect 41 1 39 0;
#X connect 42 0 43 0;
#X connect 43 0 20 0;
#X connect 44 0 66 0;
#X connect 44 0 67 0;
#X connect 44 0 93 0;
#X connect 44 0 25 0;
#X connect 44 0 94 0;
#X connect 45 0 37 0;
#X connect 46 0 47 0;
#X connect 47 0 45 0;
#X connect 47 1 50 0;
#X connect 47 2 51 0;
#X connect 49 0 31 0;
#X connect 50 0 81 0;
#X connect 51 0 55 0;
#X connect 51 0 56 0;
#X connect 52 0 48 0;
#X connect 53 0 85 0;
#X connect 54 0 85 1;
#X connect 55 0 53 0;
#X connect 56 0 54 0;
#X connect 57 0 61 0;
#X connect 58 0 62 0;
#X connect 59 0 60 0;
#X connect 60 0 50 0;
#X connect 60 0 51 0;
#X connect 61 0 23 0;
#X connect 62 0 23 1;
#X connect 63 0 88 0;
#X connect 64 0 65 0;
#X connect 65 0 63 1;
#X connect 66 0 1 0;
#X connect 67 0 2 0;
#X connect 69 0 64 0;
#X connect 70 0 45 0;
#X connect 71 0 95 0;
#X connect 82 0 57 1;
#X connect 82 0 58 1;
#X connect 83 0 84 0;
#X connect 84 0 61 1;
#X connect 84 1 62 1;
#X connect 85 0 86 0;
#X connect 88 0 90 0;
#X connect 89 0 88 1;
#X connect 90 0 57 0;
#X connect 90 0 58 0;
#X connect 91 0 90 1;
#X connect 92 0 96 0;
#X connect 93 0 71 0;
#X connect 94 0 92 0;
#X connect 98 0 73 0;
#X connect 98 0 37 0;
#X connect 99 0 34 0;
#X connect 100 0 32 0;
#X coords 0 -1 1 1 180 150 1 100 100;
