#N canvas 475 333 1127 751 12;
#X obj 101 105 cnv 19 298 69 empty empty empty 20 10 0 14 #dfdfdf #7c7c7c 0;
#X obj 120 139 bng 32 250 50 0 empty empty play\ all 0 -10 0 12 #ff8300 #000000 #000000;
#X floatatom 225 126 5 0 1000 1 bpm - - 0;
#X floatatom 305 127 5 1 16 1 beats - - 0;
#X obj 312 205 s beats;
#X obj 224 205 s bpm;
#X msg 291 63 16;
#X msg 235 62 120;
#X obj 119 266 outlet;
#X obj 163 152 bng 19 250 50 0 empty empty loops\ off 24 10 0 8 #ff0400 #000000 #000000;
#X obj 189 279 outlet;
#X obj 162 18 loadbang;
#X obj 158 67 delay 100;
#X obj 236 151 tgl 19 0 empty empty keyboard\ playback 24 10 0 12 #ffffff #000000 #000000 0 1;
#X obj 423 206 s keys;
#X obj 101 101 cnv 19 298 20 empty empty control\ panel 20 10 0 14 #9f9f9f #ffffff 0;
#X connect 1 0 8 0;
#X connect 2 0 5 0;
#X connect 3 0 4 0;
#X connect 6 0 3 0;
#X connect 7 0 2 0;
#X connect 9 0 10 0;
#X connect 11 0 7 0;
#X connect 11 0 6 0;
#X connect 11 0 12 0;
#X connect 12 0 9 0;
#X connect 13 0 14 0;
#X coords 0 -1 1 1 300 75 1 100 100;
