#N canvas 391 270 645 622 12;
#X obj 54 75 inlet~;
#X obj 54 271 outlet~;
#X obj 54 224 expr~ int($v1);
#X obj 201 76 inlet;
#X obj 202 104 loadbang;
#X obj 202 132 \$1;
#X obj 202 154 sel 0;
#X obj 54 198 *~ 50;
#X obj 54 248 /~ 50;
#X text 191 223 <- quantize by downscaling resolution of sample, f 19;
#X connect 0 0 7 0;
#X connect 2 0 8 0;
#X connect 3 0 7 1;
#X connect 3 0 8 1;
#X connect 4 0 5 0;
#X connect 5 0 6 0;
#X connect 6 1 7 1;
#X connect 6 1 8 1;
#X connect 7 0 2 0;
#X connect 8 0 1 0;
