#N canvas 615 99 450 300 12;
#X obj 154 24 inlet;
#X obj 220 130 + 1;
#X obj 154 106 float 0;
#X obj 331 24 inlet;
#X text 14 152 count up to X before repeating, f 17;
#X text 365 56 this will make the output -1 \, which after mod becomes 7 which lets the FIRST iteration of the counter tabread at 0 instead of skipping it, f 36;
#X obj 256 130 inlet;
#X obj 154 173 mod;
#X floatatom 256 156 5 0 0 0 - - - 0;
#X obj 154 219 outlet;
#X msg 308 63 0;
#X connect 0 0 2 0;
#X connect 1 0 2 1;
#X connect 1 0 7 0;
#X connect 2 0 1 0;
#X connect 3 0 10 0;
#X connect 6 0 8 0;
#X connect 7 0 9 0;
#X connect 8 0 7 1;
#X connect 10 0 2 1;
